<svg width="287" height="284" viewBox="0 0 287 284" version="1.1" xmlns="http://www.w3.org/2000/svg" xmlns:xlink="http://www.w3.org/1999/xlink">
<title>Group</title>
<desc>Created using Figma</desc>
<g id="Canvas" transform="translate(210 -390)">
<g id="Group">
<g id="DEUX CLI">
<use xlink:href="#path0_fill" transform="translate(-211 611.969)" fill="#070D17"/>
</g>
<g id="Group">
<g id="Subtract">
<use xlink:href="#path1_fill" transform="translate(-154 390.031)" fill="#007BF3"/>
</g>
<g id="Polygon">
<use xlink:href="#path2_fill" transform="translate(-153.997 390.032)" fill="#004AAD"/>
</g>
<g id="Polygon">
<use xlink:href="#path3_fill" transform="matrix(0.999982 -0.00597851 -0.00599076 -0.999982 -153.425 585.031)" fill="#004AAD"/>
</g>
</g>
</g>
</g>
<defs>
<path id="path0_fill" d="M 21.516 61.264C 20.108 61.264 18.436 61.198 16.5 61.066C 15.796 61.022 14.916 60.978 13.86 60.934C 12.848 60.89 11.704 60.868 10.428 60.868L 5.544 60.934C 4.664 60.978 3.476 61 1.98 61C 1.892 61 1.848 60.868 1.848 60.604C 1.848 60.34 1.892 60.208 1.98 60.208C 3.388 60.208 4.422 60.098 5.082 59.878C 5.742 59.658 6.182 59.24 6.402 58.624C 6.666 57.964 6.798 56.974 6.798 55.654L 6.798 25.096C 6.798 23.776 6.666 22.808 6.402 22.192C 6.182 21.576 5.742 21.158 5.082 20.938C 4.466 20.674 3.476 20.542 2.112 20.542C 1.98 20.542 1.914 20.41 1.914 20.146C 1.914 19.882 1.98 19.75 2.112 19.75L 5.61 19.816C 7.634 19.904 9.24 19.948 10.428 19.948C 12.232 19.948 14.08 19.882 15.972 19.75C 18.26 19.662 19.8 19.618 20.592 19.618C 25.036 19.618 28.974 20.498 32.406 22.258C 35.882 24.018 38.566 26.416 40.458 29.452C 42.35 32.488 43.296 35.898 43.296 39.682C 43.296 43.95 42.306 47.734 40.326 51.034C 38.39 54.29 35.75 56.82 32.406 58.624C 29.106 60.384 25.476 61.264 21.516 61.264ZM 20.856 59.746C 23.672 59.746 26.158 59.042 28.314 57.634C 30.47 56.182 32.142 54.048 33.33 51.232C 34.562 48.416 35.178 45.05 35.178 41.134C 35.178 37.394 34.606 34.006 33.462 30.97C 32.318 27.89 30.69 25.47 28.578 23.71C 26.466 21.95 24.024 21.07 21.252 21.07C 18.524 21.07 16.654 21.334 15.642 21.862C 14.63 22.39 14.124 23.512 14.124 25.228L 14.124 54.928C 14.124 56.688 14.586 57.942 15.51 58.69C 16.434 59.394 18.216 59.746 20.856 59.746ZM 79.2712 50.506C 79.2712 50.418 79.3592 50.374 79.5352 50.374C 79.6672 50.374 79.7772 50.418 79.8652 50.506C 79.9972 50.55 80.0632 50.594 80.0632 50.638C 79.6232 54.07 79.4032 57.194 79.4032 60.01C 79.4032 60.362 79.3372 60.626 79.2052 60.802C 79.0732 60.934 78.8092 61 78.4132 61L 49.2412 61C 49.1092 61 49.0432 60.868 49.0432 60.604C 49.0432 60.34 49.1092 60.208 49.2412 60.208C 50.6492 60.208 51.6612 60.098 52.2772 59.878C 52.9372 59.658 53.3772 59.24 53.5972 58.624C 53.8172 57.964 53.9272 56.974 53.9272 55.654L 53.9272 25.096C 53.9272 23.776 53.8172 22.808 53.5972 22.192C 53.3772 21.576 52.9372 21.158 52.2772 20.938C 51.6172 20.674 50.6052 20.542 49.2412 20.542C 49.1092 20.542 49.0432 20.41 49.0432 20.146C 49.0432 19.882 49.1092 19.75 49.2412 19.75L 77.2252 19.75C 77.6652 19.75 77.8852 19.948 77.8852 20.344L 78.0172 29.122C 78.0172 29.21 77.8852 29.276 77.6212 29.32C 77.4012 29.364 77.2692 29.32 77.2252 29.188C 76.5212 26.636 75.3332 24.744 73.6612 23.512C 71.9892 22.28 69.7892 21.664 67.0612 21.664L 65.0812 21.664C 63.7612 21.664 62.7932 21.95 62.1772 22.522C 61.5612 23.094 61.2532 23.974 61.2532 25.162L 61.2532 38.626L 66.7312 38.626C 69.2832 38.626 71.2412 38.186 72.6052 37.306C 73.9692 36.426 74.6512 35.194 74.6512 33.61C 74.6512 33.478 74.7612 33.412 74.9812 33.412C 75.2452 33.412 75.3772 33.478 75.3772 33.61L 75.3112 39.55L 75.3772 42.718C 75.4652 44.214 75.5092 45.402 75.5092 46.282C 75.5092 46.37 75.3772 46.414 75.1132 46.414C 74.8492 46.414 74.7172 46.37 74.7172 46.282C 74.7172 44.478 74.0132 43.07 72.6052 42.058C 71.2412 41.002 69.2612 40.474 66.6652 40.474L 61.2532 40.474L 61.2532 55.39C 61.2532 56.666 61.4952 57.612 61.9792 58.228C 62.4632 58.844 63.2332 59.152 64.2892 59.152L 66.4672 59.152C 69.8992 59.152 72.6492 58.448 74.7172 57.04C 76.7852 55.632 78.3032 53.454 79.2712 50.506ZM 120.637 28.198C 120.637 25.822 120.087 23.952 118.987 22.588C 117.931 21.224 116.435 20.542 114.499 20.542C 114.411 20.542 114.367 20.41 114.367 20.146C 114.367 19.882 114.411 19.75 114.499 19.75L 117.667 19.816C 119.339 19.904 120.681 19.948 121.693 19.948C 122.529 19.948 123.739 19.904 125.323 19.816L 128.359 19.75C 128.447 19.75 128.491 19.882 128.491 20.146C 128.491 20.41 128.447 20.542 128.359 20.542C 126.643 20.542 125.301 21.224 124.333 22.588C 123.365 23.952 122.881 25.822 122.881 28.198L 122.881 46.546C 122.881 49.626 122.199 52.332 120.835 54.664C 119.471 56.996 117.535 58.8 115.027 60.076C 112.563 61.308 109.703 61.924 106.447 61.924C 103.191 61.924 100.309 61.308 97.8012 60.076C 95.2932 58.844 93.3132 57.062 91.8612 54.73C 90.4532 52.354 89.7492 49.582 89.7492 46.414L 89.7492 25.096C 89.7492 23.776 89.6172 22.808 89.3532 22.192C 89.1332 21.576 88.6932 21.158 88.0332 20.938C 87.4172 20.674 86.4272 20.542 85.0632 20.542C 84.9312 20.542 84.8652 20.41 84.8652 20.146C 84.8652 19.882 84.9312 19.75 85.0632 19.75L 88.5612 19.816C 90.5852 19.904 92.1912 19.948 93.3792 19.948C 94.6992 19.948 96.3712 19.904 98.3952 19.816L 101.761 19.75C 101.893 19.75 101.959 19.882 101.959 20.146C 101.959 20.41 101.893 20.542 101.761 20.542C 100.397 20.542 99.3852 20.674 98.7252 20.938C 98.1092 21.202 97.6692 21.664 97.4052 22.324C 97.1852 22.94 97.0752 23.908 97.0752 25.228L 97.0752 44.104C 97.0752 49.34 98.1092 53.212 100.177 55.72C 102.245 58.228 105.171 59.482 108.955 59.482C 112.607 59.482 115.467 58.382 117.535 56.182C 119.603 53.938 120.637 50.748 120.637 46.612L 120.637 28.198ZM 171.861 60.208C 171.993 60.208 172.059 60.34 172.059 60.604C 172.059 60.868 171.993 61 171.861 61C 170.585 61 169.595 60.978 168.891 60.934L 164.931 60.868L 159.519 60.934C 158.683 60.978 157.517 61 156.021 61C 155.889 61 155.823 60.868 155.823 60.604C 155.823 60.34 155.889 60.208 156.021 60.208C 157.473 60.208 158.199 59.834 158.199 59.086C 158.199 58.69 158.001 58.206 157.605 57.634L 148.563 43.642L 142.887 51.76C 141.171 54.18 140.313 56.138 140.313 57.634C 140.313 59.35 141.457 60.208 143.745 60.208C 143.833 60.208 143.877 60.34 143.877 60.604C 143.877 60.868 143.833 61 143.745 61C 142.293 61 141.193 60.978 140.445 60.934L 135.561 60.868L 132.459 60.934C 131.887 60.978 130.963 61 129.687 61C 129.555 61 129.489 60.868 129.489 60.604C 129.489 60.34 129.555 60.208 129.687 60.208C 131.051 60.208 132.723 59.482 134.703 58.03C 136.683 56.578 138.751 54.356 140.907 51.364L 147.639 42.256L 137.079 25.822C 135.891 23.93 134.747 22.588 133.647 21.796C 132.547 20.96 131.381 20.542 130.149 20.542C 130.017 20.542 129.951 20.41 129.951 20.146C 129.951 19.882 130.017 19.75 130.149 19.75L 132.987 19.816C 134.219 19.904 135.143 19.948 135.759 19.948C 137.299 19.948 139.213 19.904 141.501 19.816L 145.263 19.75C 145.351 19.75 145.395 19.882 145.395 20.146C 145.395 20.41 145.351 20.542 145.263 20.542C 143.767 20.542 143.019 20.916 143.019 21.664C 143.019 22.016 143.217 22.522 143.613 23.182L 152.325 36.58L 157.605 29.056C 159.321 26.592 160.179 24.612 160.179 23.116C 160.179 21.4 159.035 20.542 156.747 20.542C 156.659 20.542 156.615 20.41 156.615 20.146C 156.615 19.882 156.659 19.75 156.747 19.75L 160.047 19.816C 161.807 19.904 163.435 19.948 164.931 19.948C 165.855 19.948 166.889 19.904 168.033 19.816L 170.805 19.75C 170.937 19.75 171.003 19.882 171.003 20.146C 171.003 20.41 170.937 20.542 170.805 20.542C 169.397 20.542 167.703 21.29 165.723 22.786C 163.787 24.238 161.719 26.46 159.519 29.452L 153.249 38.032L 164.535 55.522C 165.635 57.15 166.757 58.338 167.901 59.086C 169.045 59.834 170.365 60.208 171.861 60.208ZM 215.345 19.024C 217.281 19.024 219.305 19.2 221.417 19.552C 223.529 19.86 225.179 20.278 226.367 20.806C 226.763 20.938 227.005 21.114 227.093 21.334C 227.225 21.51 227.335 21.84 227.423 22.324L 228.215 31.498C 228.215 31.63 228.105 31.718 227.885 31.762C 227.665 31.806 227.533 31.74 227.489 31.564C 225.993 28.088 223.991 25.404 221.483 23.512C 218.975 21.62 216.071 20.674 212.771 20.674C 208.415 20.674 205.049 22.28 202.673 25.492C 200.297 28.704 199.109 33.016 199.109 38.428C 199.109 42.476 199.747 46.172 201.023 49.516C 202.343 52.86 204.169 55.522 206.501 57.502C 208.877 59.438 211.561 60.406 214.553 60.406C 217.369 60.406 219.877 59.482 222.077 57.634C 224.321 55.742 226.323 52.882 228.083 49.054C 228.127 48.878 228.259 48.812 228.479 48.856C 228.743 48.9 228.875 48.988 228.875 49.12L 227.885 58.096C 227.797 58.624 227.687 58.976 227.555 59.152C 227.467 59.284 227.225 59.438 226.829 59.614C 222.913 61.066 218.887 61.792 214.751 61.792C 209.383 61.792 204.895 60.736 201.287 58.624C 197.679 56.468 195.017 53.762 193.301 50.506C 191.629 47.206 190.793 43.774 190.793 40.21C 190.793 36.03 191.915 32.334 194.159 29.122C 196.447 25.91 199.461 23.424 203.201 21.664C 206.985 19.904 211.033 19.024 215.345 19.024ZM 245.767 55.39C 245.767 56.534 245.855 57.37 246.031 57.898C 246.207 58.382 246.537 58.712 247.021 58.888C 247.549 59.064 248.385 59.152 249.529 59.152L 251.773 59.152C 255.205 59.152 258.175 58.25 260.683 56.446C 263.191 54.598 264.863 52.112 265.699 48.988C 265.699 48.9 265.787 48.856 265.963 48.856C 266.051 48.856 266.139 48.9 266.227 48.988C 266.359 49.032 266.425 49.076 266.425 49.12C 266.029 53.476 265.831 57.106 265.831 60.01C 265.831 60.362 265.743 60.626 265.567 60.802C 265.435 60.934 265.193 61 264.841 61L 233.689 61C 233.601 61 233.557 60.868 233.557 60.604C 233.557 60.34 233.601 60.208 233.689 60.208C 235.097 60.208 236.109 60.098 236.725 59.878C 237.385 59.658 237.825 59.24 238.045 58.624C 238.309 57.964 238.441 56.974 238.441 55.654L 238.441 25.096C 238.441 23.776 238.309 22.808 238.045 22.192C 237.825 21.576 237.385 21.158 236.725 20.938C 236.065 20.674 235.053 20.542 233.689 20.542C 233.601 20.542 233.557 20.41 233.557 20.146C 233.557 19.882 233.601 19.75 233.689 19.75L 237.055 19.816C 239.079 19.904 240.751 19.948 242.071 19.948C 243.391 19.948 245.063 19.904 247.087 19.816L 250.453 19.75C 250.585 19.75 250.651 19.882 250.651 20.146C 250.651 20.41 250.585 20.542 250.453 20.542C 249.089 20.542 248.077 20.674 247.417 20.938C 246.757 21.158 246.317 21.598 246.097 22.258C 245.877 22.874 245.767 23.842 245.767 25.162L 245.767 55.39ZM 282.656 55.654C 282.656 57.018 282.766 58.008 282.986 58.624C 283.206 59.24 283.624 59.658 284.24 59.878C 284.9 60.098 285.934 60.208 287.342 60.208C 287.474 60.208 287.54 60.34 287.54 60.604C 287.54 60.868 287.474 61 287.342 61C 285.89 61 284.746 60.978 283.91 60.934L 278.894 60.868L 274.01 60.934C 273.13 60.978 271.942 61 270.446 61C 270.358 61 270.314 60.868 270.314 60.604C 270.314 60.34 270.358 60.208 270.446 60.208C 271.854 60.208 272.888 60.098 273.548 59.878C 274.208 59.658 274.648 59.24 274.868 58.624C 275.132 57.964 275.264 56.974 275.264 55.654L 275.264 25.096C 275.264 23.776 275.132 22.808 274.868 22.192C 274.648 21.576 274.208 21.158 273.548 20.938C 272.888 20.674 271.854 20.542 270.446 20.542C 270.358 20.542 270.314 20.41 270.314 20.146C 270.314 19.882 270.358 19.75 270.446 19.75L 274.01 19.816C 276.034 19.904 277.662 19.948 278.894 19.948C 280.258 19.948 281.952 19.904 283.976 19.816L 287.342 19.75C 287.474 19.75 287.54 19.882 287.54 20.146C 287.54 20.41 287.474 20.542 287.342 20.542C 285.978 20.542 284.966 20.674 284.306 20.938C 283.646 21.202 283.206 21.664 282.986 22.324C 282.766 22.94 282.656 23.908 282.656 25.228L 282.656 55.654Z"/>
<path id="path1_fill" d="M 0.00244072 97.6963L 71.6834 0L 71.6834 0.000730796L 200 96.9356L 71.6834 194.623L 71.6834 194.576L 0 99.4642L 54.7626 149.03L 54.7626 149.055L 153.468 97.7947L 54.7626 46.9293L 0.00244072 97.699L 0.00244072 97.6963Z"/>
<path id="path2_fill" d="M 71.681 0L 54.7601 46.9285L 0 97.6956L 71.681 0Z"/>
<path id="path3_fill" d="M 71.11 0L 54.4621 45.6203L 0 95.5376L 71.11 0Z"/>
</defs>
</svg>
